<svg xmlns="http://www.w3.org/2000/svg" width="220" height="35.352" viewBox="0 0 220 35.352">
  <g id="sitelogo" transform="translate(-0.002 0.004)">
    <path id="パス_1765" data-name="パス 1765" d="M1050.927,5.926c-.062-.037-.1.015-.13.055a2.958,2.958,0,0,1-.49.506.876.876,0,0,1-1.069.075,4.434,4.434,0,0,1-.985-.859.184.184,0,0,1-.053-.128.18.18,0,0,1,.059-.126c.521-.6.942-1.277,1.409-1.916a.748.748,0,0,1,.629-.322,2.108,2.108,0,0,0,.236-.011.117.117,0,0,0,.082-.044.115.115,0,0,0,.023-.09c0-.085-.076-.093-.139-.087a7.1,7.1,0,0,1-.983,0h-.916c-.063,0-.134,0-.137.087s.066.1.126.111c.111.018.22.022.328.037.3.046.407.241.262.506a7.935,7.935,0,0,1-1.079,1.525c-.108.12-.164.122-.27,0-.452-.524-.9-1.052-1.346-1.586-.112-.136-.107-.17.043-.272a2.882,2.882,0,0,0,.622-.6,1.1,1.1,0,0,0-.138-1.55,1.407,1.407,0,0,0-1.635-.076,1.292,1.292,0,0,0-.484,1.448,3.171,3.171,0,0,0,.491.927c.11.153.1.183-.048.285s-.313.21-.463.327a1.939,1.939,0,0,0-.786,1.464,1.313,1.313,0,0,0,.767,1.32,2.143,2.143,0,0,0,1.328.138,2.564,2.564,0,0,0,1.287-.754c.172-.166.215-.167.379.014a3.324,3.324,0,0,0,.7.6,1.384,1.384,0,0,0,1.254.138,2.288,2.288,0,0,0,1.133-1.007C1050.965,6.019,1050.985,5.963,1050.927,5.926Zm-5.386-4.47a.525.525,0,0,1,.832-.2,1.125,1.125,0,0,1,.434.926,1.328,1.328,0,0,1-.412.977c-.142.13-.215.124-.34-.016a2.046,2.046,0,0,1-.6-1.015A1.041,1.041,0,0,1,1045.541,1.456Zm1.723,4.593a2.181,2.181,0,0,1-1.082.519,1.219,1.219,0,0,1-1.359-1.26,1.793,1.793,0,0,1,.677-1.286c.09-.074.18-.1.262,0,.492.572,1.063,1.075,1.532,1.669C1047.436,5.863,1047.433,5.912,1047.264,6.049Z" transform="translate(-941.551 -0.848)" fill="#fff"/>
    <path id="パス_1766" data-name="パス 1766" d="M721.989,2.516c.375.115.472.244.472.631V5.556c0,.576.011,1.154,0,1.73-.009.34-.038.687-.492.756a.068.068,0,0,0-.047.026.072.072,0,0,0-.015.053.088.088,0,0,0,.067.08.471.471,0,0,0,.124.01h1.8a.7.7,0,0,0,.111,0c.046-.009.1-.025.1-.083s-.047-.087-.1-.1a.577.577,0,0,1-.1-.006.589.589,0,0,1-.562-.447,1.418,1.418,0,0,1-.061-.465V5.933c0-.46.007-.459.464-.462a.568.568,0,0,1,.494.234c.3.377.6.743.9,1.116.326.4.648.812.977,1.216.073.088.145.2.271.2.357.007.715,0,1.073-.007a.1.1,0,0,0,.08-.024.088.088,0,0,0,.032-.078.08.08,0,0,0-.03-.071.086.086,0,0,0-.074-.019c-.206.027-.318-.1-.429-.24-.309-.379-.623-.754-.929-1.134-.332-.413-.669-.822-.981-1.255-.063-.089-.1-.171.052-.205a1.513,1.513,0,0,0,1.063-1.74,1.346,1.346,0,0,0-1.29-1.134,12.984,12.984,0,0,0-1.564-.009h-1.389c-.052,0-.125-.012-.135.072S721.925,2.5,721.989,2.516Zm1.3.433c0-.282.1-.393.375-.422a1.743,1.743,0,0,1,1.292.281,1.354,1.354,0,0,1-.166,2.147,2.218,2.218,0,0,1-1.287.295c-.178-.006-.215-.06-.215-.238V3.972C723.289,3.63,723.288,3.289,723.289,2.949Z" transform="translate(-650.983 -2.075)" fill="#fff"/>
    <path id="パス_1767" data-name="パス 1767" d="M611.672,7.435a1.41,1.41,0,0,0,.934-2.243,2.027,2.027,0,0,0-1.178-.709c-.039-.01-.1.009-.107-.045s.052-.07.1-.09a2.688,2.688,0,0,0,.646-.418,1.277,1.277,0,0,0,.1-1.746,1.889,1.889,0,0,0-1.458-.668c-.752-.021-1.5-.033-2.259-.048-.048,0-.116-.015-.132.052-.02.085.056.1.115.122.339.128.385.2.385.552v2.16H608.8V6.526a.753.753,0,0,1-.556.826l-.042.02a.064.064,0,0,0-.048.072.07.07,0,0,0,.077.064h.1c.742,0,1.485,0,2.229-.007a6.766,6.766,0,0,0,1.117-.065Zm-2.049-4.3V2.126A.39.39,0,0,1,610,1.7a1.423,1.423,0,0,1,1.622,1.6,1.292,1.292,0,0,1-.232.641,1.021,1.021,0,0,1-.694.415,4.323,4.323,0,0,1-.865.019.19.19,0,0,1-.152-.063.186.186,0,0,1-.043-.159C609.627,3.816,609.623,3.475,609.623,3.134ZM609.61,6.5V4.883c0-.131.056-.217.187-.229a2.428,2.428,0,0,1,1.761.371,1.165,1.165,0,0,1,.448,1.313,1.248,1.248,0,0,1-1.036.938,1.8,1.8,0,0,1-.706,0A.725.725,0,0,1,609.61,6.5Z" transform="translate(-548.431 -1.325)" fill="#fff"/>
    <path id="パス_1768" data-name="パス 1768" d="M486.731,6.013a1.02,1.02,0,0,1-.643-.565c-.045-.1-.1-.187-.133-.285Q485.028,2.672,484.24.13c-.018-.055-.021-.121-.092-.133s-.1.056-.121.105a.8.8,0,0,1-.764.509c-.09,0-.125.047-.1.132a.393.393,0,0,1-.046.286q-.595,1.351-1.187,2.7c-.238.546-.452,1.1-.726,1.634a1.36,1.36,0,0,1-.693.636c-.059.026-.135.028-.122.113s.1.071.154.073c.175.006.349,0,.522,0h1.171c.083,0,.145-.023.145-.123s-.077-.077-.136-.082a.987.987,0,0,1-.52-.189.37.37,0,0,1-.135-.46c.167-.463.371-.91.571-1.36a.2.2,0,0,1,.21-.132c.669.008,1.337.015,2.006.015a.262.262,0,0,1,.282.2c.146.414.295.828.437,1.244a.429.429,0,0,1-.286.589.924.924,0,0,1-.323.065c-.076,0-.172-.017-.167.109s.084.128.177.128h2.212c.054,0,.125.024.135-.067S486.788,6.032,486.731,6.013ZM484.258,3.5h-.742v0h-.727c-.243,0-.369-.16-.274-.383q.414-.982.852-1.955c.083-.187.231-.189.346-.016a.8.8,0,0,1,.092.2q.313.969.624,1.94C484.487,3.458,484.456,3.5,484.258,3.5Z" transform="translate(-433.21 0)" fill="#fff"/>
    <path id="パス_1769" data-name="パス 1769" d="M382.881,2.411a.641.641,0,0,1,.269.127.876.876,0,0,1,.28.752q0,1.717-.011,3.431a3.22,3.22,0,0,1-.1,1,.6.6,0,0,1-.334.393c-.049.021-.132.019-.114.1s.092.053.146.053h1.866c.052,0,.131.027.14-.057s-.073-.079-.124-.1a.87.87,0,0,1-.635-.761c-.032-.6-.024-1.2,0-1.792a.268.268,0,0,1,.236-.269,1.029,1.029,0,0,1,1.26.729,4.226,4.226,0,0,1,.1.411c.02.084.05.149.157.13s.121-.088.107-.175c-.017-.114-.048-.226-.061-.34a7.529,7.529,0,0,1,.02-1.491c.017-.183.032-.366.047-.549.007-.078,0-.15-.1-.162s-.1.08-.122.146a.174.174,0,0,1,0,.046,1.078,1.078,0,0,1-1.271,1.016c-.289-.008-.367-.1-.367-.393V2.985a.96.96,0,0,1,.032-.262.309.309,0,0,1,.336-.25c.326,0,.653,0,.982.007a1.55,1.55,0,0,1,1.018.362,8.492,8.492,0,0,1,.632.589c.042.045.086.108.159.059s.02-.106,0-.155c-.115-.295-.239-.581-.348-.876a.28.28,0,0,0-.305-.208c-.626.006-1.254,0-1.88,0h-1.884a.823.823,0,0,0-.11,0c-.041.006-.087.014-.091.069A.083.083,0,0,0,382.881,2.411Z" transform="translate(-345.214 -2.031)" fill="#fff"/>
    <path id="パス_1770" data-name="パス 1770" d="M928.426,7.559c.076-.035.156-.083.228.008.034.047.066.1.137.075s.046-.09.047-.139c.014-.435.023-.87.033-1.305a.762.762,0,0,0-.012-.125.088.088,0,0,0-.082-.082.083.083,0,0,0-.082.064c-.021.07-.041.14-.056.211a1.939,1.939,0,0,1-1.973,1.506,2.037,2.037,0,0,1-1.847-1.224,3.526,3.526,0,0,1,.351-3.732,1.59,1.59,0,0,1,1.338-.687,1.9,1.9,0,0,1,1.95,1.322,1.324,1.324,0,0,0,.055.146c.021.04.038.1.1.084s.055-.069.055-.115V2.89h.007V2.261c0-.059.022-.136-.057-.163s-.116.034-.15.088a.222.222,0,0,1-.134.106.217.217,0,0,1-.167-.02L928,2.216a3.429,3.429,0,0,0-2.405-.151,3.013,3.013,0,0,0-2.03,3.025,2.95,2.95,0,0,0,.677,1.885,3.249,3.249,0,0,0,3,.972,3.906,3.906,0,0,0,1.177-.389Z" transform="translate(-832.869 -1.728)" fill="#fff"/>
    <path id="パス_1771" data-name="パス 1771" d="M840.7,7.538a.547.547,0,0,1-.562-.606c-.04-1.38-.031-2.759-.027-4.14,0-.388.013-.786.53-.879a.086.086,0,0,0,.074-.091c0-.058-.047-.078-.1-.082a1.084,1.084,0,0,0-.126-.006h-1.769c-.081,0-.21-.043-.223.082s.115.111.2.132a.582.582,0,0,1,.514.589c0,1.453.034,2.907-.021,4.36a.586.586,0,0,1-.565.646c-.067.012-.154.015-.154.1s.1.078.161.079h2.054c.06,0,.142.011.146-.081S840.766,7.547,840.7,7.538Z" transform="translate(-756.131 -1.56)" fill="#fff"/>
    <path id="パス_1772" data-name="パス 1772" d="M1282.479,3.1a.674.674,0,0,0,.093.023.477.477,0,0,1,.4.491c.008.157.013.314.013.472v3.6c0,.12-.008.241-.02.36-.029.295-.117.537-.464.579a.073.073,0,0,0-.078.082.1.1,0,0,0,.08.086.328.328,0,0,0,.1.006h1.849a.517.517,0,0,0,.107-.011.08.08,0,0,0,.073-.074.089.089,0,0,0-.073-.089.832.832,0,0,0-.142-.015.583.583,0,0,1-.537-.415,1.1,1.1,0,0,1-.066-.354c0-.446-.01-.892-.01-1.337s.015-.44.452-.448a.588.588,0,0,1,.524.248c.213.276.438.539.654.809q.615.767,1.233,1.536c.068.086.142.179.264.18.347,0,.693,0,1.042-.008.071,0,.125-.024.122-.107s-.056-.1-.122-.09a.411.411,0,0,1-.373-.2c-.415-.514-.835-1.024-1.25-1.54-.237-.295-.467-.6-.687-.9-.1-.129-.078-.163.068-.208a1.527,1.527,0,0,0,1.058-1.669,1.361,1.361,0,0,0-1.316-1.2,14.742,14.742,0,0,0-1.545-.013h-1.248c-.059,0-.114.006-.173.01s-.1,0-.105.069A.1.1,0,0,0,1282.479,3.1Zm1.333,1.446V3.492a.32.32,0,0,1,.313-.361,1.691,1.691,0,0,1,1.411.323,1.364,1.364,0,0,1-.293,2.139,2.322,2.322,0,0,1-1.2.25c-.183,0-.227-.061-.227-.243Z" transform="translate(-1156.47 -2.611)" fill="#fff"/>
    <path id="パス_1773" data-name="パス 1773" d="M1616.532,1.678c-.589-.01-1.189.027-1.782-.033-.07-.008-.159-.018-.165.092s.067.124.152.138a.881.881,0,0,1,.755.706,1.583,1.583,0,0,1,.047.295c.059,1.054.056,2.108.032,3.163,0,.068.044.17-.035.2s-.117-.073-.168-.124c-1.211-1.311-2.434-2.612-3.626-3.942a1.329,1.329,0,0,0-1.171-.528,6.306,6.306,0,0,1-.694-.022c-.078,0-.173-.017-.2.079s.054.141.118.184.163.1.244.141a2.1,2.1,0,0,1,.485.376.411.411,0,0,1,.123.295c-.006,1.212,0,2.425-.014,3.633-.007.687-.162.894-.781,1.13-.065.026-.156.043-.137.14s.115.075.185.075h1.942c.071,0,.166.012.173-.087s-.074-.111-.161-.12a.919.919,0,0,1-.869-.9c-.033-.6-.046-1.2-.069-1.808h-.021V2.936c0-.059-.027-.136.046-.168s.122.034.169.084q1.636,1.809,3.272,3.616c.347.386.69.775,1.042,1.158.068.076.146.178.266.133s.083-.169.084-.263c.016-.708.034-1.416.045-2.124.015-.8.021-1.6.045-2.407.015-.5.122-.959.722-1.08.057-.012.121-.042.111-.113C1616.681,1.681,1616.606,1.679,1616.532,1.678Z" transform="translate(-1451.601 -1.463)" fill="#fff"/>
    <path id="パス_1774" data-name="パス 1774" d="M1167.263,2.7a3.049,3.049,0,1,0,0,6.1,3.068,3.068,0,0,0,3.121-3.008A3.022,3.022,0,0,0,1167.263,2.7Zm1.424,5.221a1.754,1.754,0,0,1-2.788-.007,3.215,3.215,0,0,1-.737-1.944,3.537,3.537,0,0,1,.483-2.11,1.772,1.772,0,0,1,3.036-.234,3.168,3.168,0,0,1,.723,1.794c.011.109.011.22.016.312A3.318,3.318,0,0,1,1168.687,7.921Z" transform="translate(-1049.865 -2.438)" fill="#fff"/>
    <path id="パス_1775" data-name="パス 1775" d="M1395.621,4.83h-2.087c-.07.006-.163,0-.167.1s.064.133.156.136a2.052,2.052,0,0,1,.219.018.606.606,0,0,1,.621.589,5.323,5.323,0,0,1-.03.99.783.783,0,0,1-.611.729c-.148.037-.3.075-.446.1a2.292,2.292,0,0,1-2.146-.757,3.155,3.155,0,0,1-.726-2.28,3.316,3.316,0,0,1,.688-1.829,1.957,1.957,0,0,1,2.16-.843,2.076,2.076,0,0,1,1.687,1.453.585.585,0,0,0,.1.209c.029.038.064.074.118.057a.124.124,0,0,0,.1-.114c0-.037,0-.073,0-.11a10.54,10.54,0,0,1-.046-1.314c0-.085.051-.212-.078-.243s-.145.1-.186.18c-.063.136-.144.154-.273.084a3.931,3.931,0,0,0-1.486-.443,3.4,3.4,0,0,0-2.815.952,2.936,2.936,0,0,0-.825,2.388,2.748,2.748,0,0,0,2.1,2.669,4.739,4.739,0,0,0,3.346-.309.321.321,0,0,0,.213-.339c0-.424.016-.849.019-1.277a.42.42,0,0,1,.12-.311,1.107,1.107,0,0,1,.33-.26c.068-.029.127-.072.112-.152S1395.686,4.83,1395.621,4.83Z" transform="translate(-1253.089 -1.375)" fill="#fff"/>
    <path id="パス_1776" data-name="パス 1776" d="M1505.936,6.578a1,1,0,0,1-.467-.307,2.017,2.017,0,0,1-.3-.566c-.617-1.652-1.178-3.323-1.705-5.008-.019-.053-.021-.12-.091-.134s-.1.054-.12.1a.8.8,0,0,1-.764.511c-.1,0-.127.058-.1.144a.369.369,0,0,1-.04.257q-.593,1.316-1.162,2.644c-.251.589-.479,1.2-.786,1.768a1.312,1.312,0,0,1-.645.577c-.061.027-.15.027-.137.119s.107.061.171.074a.425.425,0,0,0,.079,0h1.641c.077,0,.1-.058.1-.12s-.049-.08-.106-.081a.991.991,0,0,1-.506-.155.391.391,0,0,1-.175-.527c.17-.444.358-.884.557-1.316a.21.21,0,0,1,.216-.144q1.02.011,2.036.015a.234.234,0,0,1,.238.169c.162.442.331.884.464,1.335a.38.38,0,0,1-.142.433.793.793,0,0,1-.482.161c-.074,0-.172-.02-.17.108s.083.129.178.128h2.2c.055,0,.135.032.152-.063S1505.993,6.6,1505.936,6.578Zm-2.482-2.514h-.71V4.058h-.728c-.269,0-.374-.161-.267-.418.2-.458.393-.912.588-1.368.079-.177.154-.354.233-.531.036-.079.078-.157.175-.161a.224.224,0,0,1,.2.141,3.571,3.571,0,0,1,.225.618c.162.491.315.982.474,1.48C1503.709,4.03,1503.678,4.063,1503.453,4.064Z" transform="translate(-1352.352 -0.51)" fill="#fff"/>
    <path id="パス_1777" data-name="パス 1777" d="M1813.329,8.563a4.078,4.078,0,0,0,1.4-.444c.092-.044.178-.079.248.031.033.047.076.1.145.064s.063-.091.063-.149V7.4h.014V6.728c0-.072,0-.158-.1-.174s-.113.07-.131.14c-.008.035-.016.071-.027.107a1.929,1.929,0,0,1-1.115,1.375,2.064,2.064,0,0,1-2.523-.786,3.663,3.663,0,0,1,.1-3.909,1.927,1.927,0,0,1,2.912-.217,2.269,2.269,0,0,1,.494.852c.02.059.041.138.115.123s.076-.091.076-.156c0-.415,0-.83.006-1.244,0-.074.008-.156-.078-.187s-.127.041-.16.1a.216.216,0,0,1-.275.086c-.066-.022-.129-.049-.191-.075a3.273,3.273,0,0,0-2.621-.054,3.136,3.136,0,0,0-1.43,4.383A3.109,3.109,0,0,0,1813.329,8.563Z" transform="translate(-1632.146 -2.221)" fill="#fff"/>
    <path id="パス_1778" data-name="パス 1778" d="M1731.692,8.187c-.033-.006-.064,0-.1-.008a.53.53,0,0,1-.518-.562c-.012-.288-.023-.576-.025-.865-.01-1.178-.021-2.351,0-3.526a.624.624,0,0,1,.527-.649.5.5,0,0,0,.088-.03.079.079,0,0,0,.049-.09.077.077,0,0,0-.078-.064c-.055,0-.105-.007-.156-.007h-1.785c-.078,0-.205-.054-.225.073s.115.115.2.138a.616.616,0,0,1,.465.614c0,.225.008.451.01.677,0,.346-.006.692,0,1.039.02.913,0,1.826-.025,2.738a.485.485,0,0,1-.332.453,1.362,1.362,0,0,1-.262.064c-.066.014-.152.02-.143.11s.1.066.156.066h2.01a.641.641,0,0,0,.139-.01c.043-.01.082-.027.082-.081S1731.733,8.2,1731.692,8.187Z" transform="translate(-1559.555 -2.144)" fill="#fff"/>
    <path id="パス_1779" data-name="パス 1779" d="M1278.728,211.334a1.1,1.1,0,0,1-.987-.521c-.688-.844-1.4-1.674-2.087-2.526q-1.544-1.925-3.061-3.874c-.177-.225-.355-.475.128-.589a4.159,4.159,0,0,0,2.768-5.033,3.709,3.709,0,0,0-3.476-2.683c-1.32-.116-2.651-.015-3.972-.016h-3.83c-.178,0-.437-.079-.468.212-.022.232.19.265.363.319,1.016.318,1.278.672,1.278,1.726v10.893a4.968,4.968,0,0,1-.092.969,1.312,1.312,0,0,1-1.015,1.178c-.159.036-.415,0-.375.272s.288.215.478.215h4.908c.2,0,.492.068.5-.239.01-.273-.269-.249-.45-.251a1.707,1.707,0,0,1-1.684-1.692c-.156-1.51-.038-3.025-.068-4.537a.57.57,0,0,1,.322-.561,2.415,2.415,0,0,1,2.043.384c.551.644,1.1,1.3,1.628,1.952,1.167,1.428,2.32,2.863,3.487,4.289.222.274.436.631.822.643.946.028,1.9,0,2.85-.011.176,0,.324-.05.324-.272S1278.9,211.319,1278.728,211.334Zm-6.973-8.266a5.676,5.676,0,0,1-3.694.855c-.419-.023-.478-.329-.478-.661v-2.832h.03c0-.878-.006-1.756,0-2.635,0-.829.263-1.109,1.094-1.185a5.582,5.582,0,0,1,2.278.2,3.035,3.035,0,0,1,2.251,2.618,3.561,3.561,0,0,1-1.479,3.637Z" transform="translate(-1139.642 -176.804)" fill="#fff"/>
    <path id="パス_1780" data-name="パス 1780" d="M639.383,193.605q-2.383-.017-4.76-.015c-.15,0-.354-.049-.4.177-.055.272.186.265.34.31a2.719,2.719,0,0,1,2.231,2.809c.161,2.716.084,5.434.092,8.15,0,.26.137.645-.146.764-.332.139-.478-.264-.662-.464q-5.043-5.524-10.066-11.068a2.168,2.168,0,0,0-1.775-.749c-.375.008-.75,0-1.125,0-.54,0-1.082-.011-1.619,0a.361.361,0,0,0-.409.333.3.3,0,0,0,.071.231.3.3,0,0,0,.216.108,3.329,3.329,0,0,1,1.845,1.2,1.314,1.314,0,0,1,.437,1.035c-.018,2.7-.016,5.4-.024,8.107,0,.618-.029,1.236-.035,1.854a2.523,2.523,0,0,1-2.006,2.651c-.2.055-.466.1-.439.37.028.295.306.24.508.24q2.577.008,5.153,0c.206,0,.474.034.492-.267s-.243-.285-.457-.311a2.463,2.463,0,0,1-2.3-2.427c-.08-1.624-.121-3.25-.18-4.876h-.088V196.98c0-.182-.081-.428.167-.5.208-.064.309.14.426.269q3.029,3.326,6.056,6.653,2.752,3.016,5.509,6.027c.19.208.38.531.715.409s.2-.476.205-.735c.045-4.165.159-8.327.313-12.488a2.268,2.268,0,0,1,1.814-2.494c.188-.043.429-.091.366-.357C639.786,193.515,639.547,193.606,639.383,193.605Z" transform="translate(-560.09 -174.513)" fill="#fff"/>
    <path id="パス_1781" data-name="パス 1781" d="M344.045,204.918c-.2-.043-.288.136-.353.281a8.231,8.231,0,0,1-1.036,1.7,3.3,3.3,0,0,1-2.16,1.305,15.132,15.132,0,0,1-4.249.125,2.879,2.879,0,0,1-1.425-.6,1.3,1.3,0,0,1-.564-1.033c-.008-1.742-.008-3.484-.021-5.226,0-.372.17-.546.524-.551.523-.009,1.046-.013,1.571,0A2.051,2.051,0,0,1,338.09,202a2.78,2.78,0,0,1,.417,1.335c.009.143-.041.4.167.393a.486.486,0,0,0,.472-.415,1.606,1.606,0,0,0,0-.295q-.04-2.563-.082-5.125a.929.929,0,0,0-.157-.6c-.078-.1-.157-.236-.308-.2s-.115.177-.134.286a5.045,5.045,0,0,1-.589,1.893,1.828,1.828,0,0,1-1.35.954c-.533.063-1.08.046-1.613.09a.524.524,0,0,1-.625-.522,3.773,3.773,0,0,1-.034-.535q-.011-2.344-.017-4.689c0-.855.227-1.112,1.1-1.178q.953-.072,1.909-.076a4.806,4.806,0,0,1,3.815,1.557,14,14,0,0,1,1.246,1.375c.1.151.241.308.439.242.222-.074.154-.294.14-.467a1.786,1.786,0,0,0-.093-.426,13.727,13.727,0,0,0-1.073-2.4.71.71,0,0,0-.711-.386c-3.416-.041-6.835.125-10.25-.085-.153-.01-.319,0-.374.16s.087.262.223.322A2.374,2.374,0,0,1,332,195.666c-.038,3.352-.064,6.7-.121,10.056a2.892,2.892,0,0,1-1.551,2.828c-.145.071-.249.176-.176.347s.253.139.385.109a8.241,8.241,0,0,1,1.807-.088c1.521-.007,3.044,0,4.564,0H342.7a.776.776,0,0,0,.785-.369,6.12,6.12,0,0,0,.761-3.234C344.24,205.168,344.241,204.964,344.045,204.918Z" transform="translate(-297.705 -173.792)" fill="#fff"/>
    <path id="パス_1782" data-name="パス 1782" d="M974.708,205c-.221-.053-.3.152-.377.311a8.716,8.716,0,0,1-.723,1.27,3.59,3.59,0,0,1-2.5,1.712,15.73,15.73,0,0,1-4.2.121,2.861,2.861,0,0,1-1.472-.62,1.238,1.238,0,0,1-.53-.95c-.015-1.774-.013-3.548-.024-5.322a.456.456,0,0,1,.507-.516c.522-.012,1.044-.01,1.571,0a2.063,2.063,0,0,1,1.768,1.056,2.8,2.8,0,0,1,.426,1.381c.006.13-.035.333.147.372s.29-.124.407-.233c.138-.13.09-.305.086-.463q-.037-2.56-.079-5.121a1.021,1.021,0,0,0-.146-.608c-.074-.106-.157-.239-.3-.223-.177.021-.133.2-.156.314a6.358,6.358,0,0,1-.392,1.5,1.993,1.993,0,0,1-1.474,1.3,16.654,16.654,0,0,1-1.808.1.425.425,0,0,1-.459-.349,2.252,2.252,0,0,1-.072-.676q-.01-2.368-.018-4.736c0-.828.226-1.074,1.067-1.158a12.144,12.144,0,0,1,2.006-.076,4.719,4.719,0,0,1,2.988.884,11.9,11.9,0,0,1,2.012,2.056c.11.155.248.289.445.225s.125-.274.132-.427a.918.918,0,0,0-.049-.286,12.325,12.325,0,0,0-1.153-2.625.617.617,0,0,0-.591-.337c-3.447-.035-6.9.126-10.343-.083-.154-.009-.321,0-.371.166s.1.258.233.318a2.378,2.378,0,0,1,1.383,2.469c-.034,3.384-.054,6.768-.125,10.151a2.8,2.8,0,0,1-1.548,2.728c-.147.071-.247.173-.181.343s.248.147.385.117a7.65,7.65,0,0,1,1.707-.089c1.554-.006,3.108,0,4.66,0h5.838a.753.753,0,0,0,.742-.361,6.113,6.113,0,0,0,.771-3.23C974.894,205.257,974.9,205.046,974.708,205Z" transform="translate(-866.427 -173.867)" fill="#fff"/>
    <path id="パス_1783" data-name="パス 1783" d="M2081.076,205.516a3.311,3.311,0,0,1-2.223-2.4c-1.645-4.378-3.113-8.817-4.543-13.268-.059-.181-.029-.437-.262-.477-.277-.049-.326.24-.412.409a1.935,1.935,0,0,1-1.619,1.178c-.428.033-.791.06-.6.663.045.137-.084.338-.156.5q-1.333,3.031-2.676,6.059c-.826,1.871-1.533,3.795-2.48,5.614a3.655,3.655,0,0,1-1.754,1.632c-.166.079-.443.066-.387.337s.313.185.5.186c1.279.006,2.553,0,3.836,0,.24,0,.488,0,.732-.009a.271.271,0,0,0,.27-.289c.016-.205-.113-.24-.279-.242a2.722,2.722,0,0,1-1.131-.295,1.122,1.122,0,0,1-.66-1.627c.449-1.114.941-2.212,1.391-3.324a.729.729,0,0,1,.783-.508c1.736.025,3.469.037,5.209.033a.748.748,0,0,1,.8.568c.373,1.073.779,2.136,1.137,3.213a1.141,1.141,0,0,1-.744,1.639,2.445,2.445,0,0,1-.8.2c-.225.019-.529-.078-.5.337.031.386.326.3.549.3.955.007,1.9,0,2.85,0h3.047c.139,0,.311.032.332-.187a.223.223,0,0,0-.045-.164A.228.228,0,0,0,2081.076,205.516Zm-6.85-6.8h-1.865c-.631,0-1.271.006-1.906,0-.783-.008-1.062-.424-.754-1.147q1.069-2.478,2.158-4.946c.107-.246.2-.55.551-.533.32.016.484.28.582.534.256.7.479,1.411.705,2.119q.536,1.643,1.061,3.286C2074.957,198.666,2074.914,198.72,2074.227,198.721Z" transform="translate(-1861.273 -170.772)" fill="#fff"/>
    <path id="パス_1784" data-name="パス 1784" d="M17.449,186.792a14.711,14.711,0,0,1-.533-2.819c-.008-.276.14-.65-.207-.786-.321-.127-.523.2-.723.393a2.685,2.685,0,0,1-2.032.771c-3.535-.05-7.062-.072-10.594-.045a2.182,2.182,0,0,1-1.835-.8,1.373,1.373,0,0,0-.163-.18c-.24-.2-.43-.16-.5.154Q.435,185.4.027,187.33c-.029.139-.068.316.108.381.213.078.28-.124.354-.255a8.827,8.827,0,0,1,1.124-1.708,1.59,1.59,0,0,1,1.178-.6c1.306-.014,2.612-.045,3.919-.061.633-.008.733.1.733.739q0,6.178.006,12.355a1.558,1.558,0,0,1-.468,1.137,1.988,1.988,0,0,1-1.186.622c-.118.016-.273.046-.27.225,0,.209.166.211.313.221.114.008.229,0,.343,0,1.717,0,3.437.009,5.152-.009.262,0,.7.182.755-.2.048-.33-.412-.267-.648-.361-1.256-.5-1.421-.982-1.4-1.94.039-1.952.012-3.906.012-5.86H10.1v-6.289c0-.365.024-.687.532-.687,1.487.016,2.973.022,4.457.122a.941.941,0,0,1,.8.476c.4.633.821,1.251,1.168,1.915.073.139.16.318.363.259.237-.068.186-.281.163-.452C17.551,187.169,17.491,186.983,17.449,186.792Z" transform="translate(0 -165.176)" fill="#fff"/>
    <path id="パス_1785" data-name="パス 1785" d="M1796.094,186.8a14.669,14.669,0,0,1-.543-2.917c-.01-.252.111-.559-.18-.7s-.457.151-.662.295a1.6,1.6,0,0,0-.182.159,2.426,2.426,0,0,1-1.812.694q-5.414-.066-10.838-.045a2.043,2.043,0,0,1-1.6-.671c-.078-.083-.146-.176-.23-.254-.291-.285-.463-.236-.555.168-.275,1.236-.541,2.475-.816,3.712-.043.184-.1.383.115.461s.266-.131.344-.269a9.819,9.819,0,0,1,1.027-1.6,1.676,1.676,0,0,1,1.283-.7c1.279-.013,2.555-.046,3.822-.062.75-.009.826.065.826.8q0,6.13,0,12.26a1.684,1.684,0,0,1-.658,1.347,1.862,1.862,0,0,1-1.012.452c-.137.016-.283.086-.277.23.006.173.166.222.326.219h5.74a1.525,1.525,0,0,0,.34-.015c.092-.02.2-.054.213-.171a.212.212,0,0,0-.162-.218c-.184-.067-.375-.11-.559-.172a1.584,1.584,0,0,1-1.34-1.851v-5.862h.033v-6.4c0-.589.068-.654.645-.652,1.4,0,2.811.023,4.215.1a1.093,1.093,0,0,1,.961.549c.367.589.762,1.172,1.094,1.788.09.163.166.413.418.314.23-.091.145-.327.119-.511A4.473,4.473,0,0,0,1796.094,186.8Z" transform="translate(-1603.975 -165.159)" fill="#fff"/>
    <path id="パス_1786" data-name="パス 1786" d="M1577.417,210.7a1.394,1.394,0,0,1-1.382-1.473c-.048-.778-.076-1.557-.076-2.338-.01-3.172-.016-6.345,0-9.516a1.554,1.554,0,0,1,1.289-1.7c.169-.049.326-.112.293-.316s-.241-.211-.393-.212q-2.6-.013-5.2,0c-.153,0-.356,0-.352.242.007.2.16.263.331.294.126.025.255.051.381.088a1.459,1.459,0,0,1,1.177,1.526c.015,1.935,0,3.871,0,5.806h-.024c0,1.935.015,3.87,0,5.8a1.579,1.579,0,0,1-1.522,1.8c-.187.036-.446.028-.408.3.034.229.275.183.446.183h5.395c.2,0,.491.055.491-.247C1577.877,210.688,1577.611,210.728,1577.417,210.7Z" transform="translate(-1417.205 -175.986)" fill="#fff"/>
  </g>
</svg>
