<svg id="sitelogo" xmlns="http://www.w3.org/2000/svg" width="200" height="32.138" viewBox="0 0 200 32.138">
  <path id="パス_1765" data-name="パス 1765" d="M1050.3,5.473c-.056-.034-.09.013-.117.05a2.7,2.7,0,0,1-.446.46.8.8,0,0,1-.973.068,4.019,4.019,0,0,1-.894-.781.168.168,0,0,1-.048-.117.163.163,0,0,1,.053-.114c.474-.546.857-1.161,1.28-1.742a.685.685,0,0,1,.573-.293,1.921,1.921,0,0,0,.215-.01.107.107,0,0,0,.074-.04.1.1,0,0,0,.021-.082c0-.078-.068-.085-.126-.079a6.445,6.445,0,0,1-.893,0h-.832c-.057,0-.122,0-.125.079s.06.089.115.1c.1.016.2.02.3.034.277.042.37.219.238.46a7.191,7.191,0,0,1-.982,1.386c-.1.109-.149.111-.245,0-.41-.476-.816-.957-1.224-1.442-.1-.123-.1-.154.039-.247a2.61,2.61,0,0,0,.566-.545,1,1,0,0,0-.125-1.409,1.278,1.278,0,0,0-1.486-.069,1.175,1.175,0,0,0-.441,1.317,2.868,2.868,0,0,0,.447.843c.1.139.088.166-.043.259s-.286.191-.422.3a1.761,1.761,0,0,0-.714,1.331,1.194,1.194,0,0,0,.7,1.2,1.949,1.949,0,0,0,1.207.126,2.325,2.325,0,0,0,1.169-.686c.156-.151.2-.152.346.012a2.973,2.973,0,0,0,.638.55,1.256,1.256,0,0,0,1.139.126,2.078,2.078,0,0,0,1.03-.915C1050.339,5.557,1050.357,5.506,1050.3,5.473Zm-4.9-4.064a.477.477,0,0,1,.756-.179,1.021,1.021,0,0,1,.393.842,1.2,1.2,0,0,1-.374.888c-.129.118-.2.112-.31-.014a1.861,1.861,0,0,1-.54-.923A.936.936,0,0,1,1045.408,1.409Zm1.565,4.175a1.969,1.969,0,0,1-.983.472,1.108,1.108,0,0,1-1.236-1.145,1.629,1.629,0,0,1,.616-1.169c.081-.067.163-.089.237,0,.448.52.966.978,1.393,1.518C1047.131,5.415,1047.128,5.459,1046.973,5.584Z" transform="translate(-950.875 -0.853)"/>
  <path id="パス_1766" data-name="パス 1766" d="M721.978,2.5c.341.1.429.221.429.574V5.26c0,.524.01,1.049,0,1.573-.008.309-.034.625-.447.687a.063.063,0,0,0-.044.024.065.065,0,0,0-.012.048.078.078,0,0,0,.061.072.427.427,0,0,0,.113.009h1.637a.633.633,0,0,0,.1,0c.042-.008.09-.022.09-.076s-.043-.079-.09-.089a.524.524,0,0,1-.089-.005.535.535,0,0,1-.511-.406,1.313,1.313,0,0,1-.056-.423V5.6c0-.418.007-.417.422-.42a.516.516,0,0,1,.449.212c.268.343.546.676.819,1.014.3.368.59.738.888,1.105.066.08.132.179.245.179.325.006.651,0,.976-.006a.088.088,0,0,0,.073-.022.084.084,0,0,0,.029-.071.076.076,0,0,0-.027-.064.08.08,0,0,0-.068-.017c-.186.024-.289-.089-.39-.218-.281-.345-.566-.686-.844-1.031-.3-.376-.609-.747-.893-1.141-.057-.081-.09-.155.047-.187a1.375,1.375,0,0,0,.967-1.582,1.224,1.224,0,0,0-1.172-1.031,11.8,11.8,0,0,0-1.421-.008h-1.263c-.048,0-.115-.011-.123.065S721.92,2.478,721.978,2.5Zm1.182.394c0-.256.089-.357.34-.384a1.586,1.586,0,0,1,1.175.255,1.23,1.23,0,0,1-.15,1.951,2.015,2.015,0,0,1-1.17.268c-.162-.005-.2-.054-.2-.216V3.82C723.16,3.509,723.159,3.2,723.16,2.889Z" transform="translate(-657.429 -2.092)"/>
  <path id="パス_1767" data-name="パス 1767" d="M611.352,6.892a1.282,1.282,0,0,0,.85-2.039,1.845,1.845,0,0,0-1.072-.645c-.034-.009-.088.008-.1-.041s.048-.063.089-.082a2.45,2.45,0,0,0,.588-.38,1.161,1.161,0,0,0,.089-1.587,1.717,1.717,0,0,0-1.326-.607c-.684-.019-1.368-.03-2.053-.044-.044,0-.106-.013-.121.047-.017.078.051.089.1.111.308.116.351.179.351.5V4.091h-.014V6.066a.685.685,0,0,1-.505.751.3.3,0,0,0-.038.018.059.059,0,0,0-.044.065.064.064,0,0,0,.07.058h.089c.675,0,1.351,0,2.026-.006a6.148,6.148,0,0,0,1.016-.059Zm-1.863-3.91V2.066a.356.356,0,0,1,.339-.387A1.294,1.294,0,0,1,611.3,3.137a1.176,1.176,0,0,1-.211.583.927.927,0,0,1-.631.378,3.927,3.927,0,0,1-.786.017.172.172,0,0,1-.138-.058.169.169,0,0,1-.04-.144C609.494,3.6,609.489,3.293,609.489,2.982Zm-.011,3.064V4.572c0-.119.051-.2.169-.208a2.208,2.208,0,0,1,1.6.337,1.058,1.058,0,0,1,.407,1.194,1.133,1.133,0,0,1-.941.853,1.632,1.632,0,0,1-.641,0A.659.659,0,0,1,609.478,6.046Z" transform="translate(-553.863 -1.335)"/>
  <path id="パス_1768" data-name="パス 1768" d="M486.153,5.466a.93.93,0,0,1-.584-.513c-.041-.089-.089-.17-.121-.259q-.843-2.266-1.559-4.576c-.016-.05-.018-.11-.083-.121s-.089.051-.11.1A.723.723,0,0,1,483,.555c-.082,0-.115.043-.094.12a.359.359,0,0,1-.042.26q-.541,1.228-1.079,2.454c-.217.5-.411,1-.659,1.485a1.239,1.239,0,0,1-.63.578c-.054.023-.122.026-.111.1s.089.064.14.066c.158.005.316,0,.474,0h1.064c.076,0,.132-.021.132-.112s-.07-.07-.124-.075a.894.894,0,0,1-.473-.171.336.336,0,0,1-.123-.418c.152-.42.337-.828.52-1.236a.184.184,0,0,1,.191-.12c.608.007,1.216.013,1.823.013a.239.239,0,0,1,.257.179c.132.377.268.753.4,1.131a.39.39,0,0,1-.26.536.842.842,0,0,1-.294.059c-.068,0-.156-.015-.151.1s.076.116.16.116h2.011c.048,0,.113.021.122-.061S486.206,5.483,486.153,5.466Zm-2.248-2.289h-.674v0h-.661c-.221,0-.335-.146-.249-.348q.376-.893.774-1.777c.075-.17.21-.171.314-.014a.76.76,0,0,1,.084.179q.284.881.567,1.764C484.114,3.143,484.085,3.177,483.905,3.177Z" transform="translate(-437.501 0.004)"/>
  <path id="パス_1769" data-name="パス 1769" d="M382.875,2.4a.582.582,0,0,1,.244.115.8.8,0,0,1,.254.684q0,1.56-.01,3.119a2.93,2.93,0,0,1-.095.906.542.542,0,0,1-.3.357c-.045.019-.12.017-.1.089s.084.048.133.048h1.7c.047,0,.119.024.128-.052s-.066-.071-.113-.089a.791.791,0,0,1-.577-.692c-.029-.543-.022-1.086,0-1.629a.244.244,0,0,1,.214-.245.936.936,0,0,1,1.145.662c.041.121.065.248.095.374.018.077.046.136.143.118s.111-.08.1-.159c-.016-.1-.044-.205-.055-.309a6.835,6.835,0,0,1,.018-1.355c.015-.166.029-.333.043-.5.006-.071,0-.137-.089-.147s-.093.072-.111.133a.14.14,0,0,1,0,.042.98.98,0,0,1-1.155.924c-.262-.007-.334-.089-.334-.357V2.918a.865.865,0,0,1,.029-.238.281.281,0,0,1,.305-.228c.3,0,.594,0,.893.006a1.409,1.409,0,0,1,.926.329,7.839,7.839,0,0,1,.574.536c.038.041.078.1.144.054s.018-.1,0-.141c-.1-.268-.217-.528-.316-.8a.254.254,0,0,0-.277-.189c-.57.005-1.14,0-1.709,0H382.99a.748.748,0,0,0-.1,0c-.037.005-.079.012-.083.062A.076.076,0,0,0,382.875,2.4Z" transform="translate(-348.633 -2.047)"/>
  <path id="パス_1770" data-name="パス 1770" d="M927.983,7.045c.069-.032.143-.076.207.007.031.043.061.095.124.068s.043-.082.044-.127c.012-.4.021-.791.03-1.186a.667.667,0,0,0-.012-.113.08.08,0,0,0-.074-.074.075.075,0,0,0-.074.058c-.02.063-.038.128-.052.192a1.761,1.761,0,0,1-1.793,1.369,1.85,1.85,0,0,1-1.677-1.112,3.2,3.2,0,0,1,.318-3.392,1.445,1.445,0,0,1,1.216-.625,1.728,1.728,0,0,1,1.772,1.2,1.226,1.226,0,0,0,.051.133c.018.037.034.089.09.077s.049-.062.049-.1V2.8h.005V2.229c0-.054.022-.124-.051-.148s-.105.031-.137.08a.2.2,0,0,1-.121.1.2.2,0,0,1-.152-.018l-.146-.051a3.116,3.116,0,0,0-2.186-.137,2.739,2.739,0,0,0-1.845,2.75,2.68,2.68,0,0,0,.615,1.714,2.955,2.955,0,0,0,2.73.884,3.545,3.545,0,0,0,1.069-.354Z" transform="translate(-841.117 -1.742)"/>
  <path id="パス_1771" data-name="パス 1771" d="M840.5,7.01a.5.5,0,0,1-.51-.551c-.036-1.254-.029-2.509-.025-3.764,0-.353.012-.714.482-.8a.079.079,0,0,0,.068-.083c0-.053-.043-.071-.09-.075a.987.987,0,0,0-.115-.005H838.7c-.073,0-.19-.039-.2.074s.1.1.178.12a.529.529,0,0,1,.467.536c0,1.321.031,2.642-.018,3.964a.533.533,0,0,1-.514.587c-.061.011-.141.013-.141.089s.09.071.147.071h1.867c.053,0,.128.01.133-.073S840.557,7.018,840.5,7.01Z" transform="translate(-763.618 -1.572)"/>
  <path id="パス_1772" data-name="パス 1772" d="M1282.471,3.08a.62.62,0,0,0,.085.021.434.434,0,0,1,.366.446c.006.143.01.286.01.429V7.254a3.125,3.125,0,0,1-.018.328c-.026.268-.106.488-.421.527a.068.068,0,0,0-.072.075.092.092,0,0,0,.074.079.3.3,0,0,0,.089.005h1.68a.453.453,0,0,0,.1-.01.075.075,0,0,0,.068-.067.082.082,0,0,0-.068-.081.748.748,0,0,0-.128-.013.53.53,0,0,1-.488-.378,1.008,1.008,0,0,1-.061-.322c0-.405-.008-.811-.009-1.216s.014-.4.413-.407a.533.533,0,0,1,.475.226c.193.251.4.49.595.736q.561.7,1.12,1.4a.329.329,0,0,0,.241.163c.315,0,.631,0,.947-.007.065,0,.115-.021.112-.1s-.052-.089-.111-.082a.372.372,0,0,1-.339-.179c-.378-.467-.759-.931-1.137-1.4-.215-.268-.423-.541-.625-.816-.09-.117-.07-.148.063-.189a1.389,1.389,0,0,0,.961-1.518,1.237,1.237,0,0,0-1.2-1.089,13.407,13.407,0,0,0-1.4-.012h-1.134c-.052,0-.1.005-.157.009s-.088,0-.1.062A.091.091,0,0,0,1282.471,3.08Zm1.212,1.315V3.437a.291.291,0,0,1,.284-.329,1.539,1.539,0,0,1,1.284.294,1.241,1.241,0,0,1-.267,1.944,2.117,2.117,0,0,1-1.095.228c-.167,0-.207-.055-.207-.22V4.4Z" transform="translate(-1167.92 -2.634)"/>
  <path id="パス_1773" data-name="パス 1773" d="M1615.907,1.672c-.535-.009-1.081.024-1.621-.03-.063-.007-.143-.016-.15.084s.061.112.139.126a.8.8,0,0,1,.686.642,1.431,1.431,0,0,1,.043.268c.054.958.05,1.917.029,2.875,0,.062.039.154-.032.179s-.107-.066-.151-.112c-1.1-1.192-2.214-2.375-3.3-3.583a1.207,1.207,0,0,0-1.064-.48,5.74,5.74,0,0,1-.631-.02c-.07,0-.156-.015-.184.071s.048.129.107.167.148.089.223.129a1.9,1.9,0,0,1,.44.342.373.373,0,0,1,.113.268c-.007,1.1,0,2.2-.013,3.3-.007.625-.147.812-.71,1.028-.06.023-.143.039-.125.128s.1.068.167.068h1.767c.065,0,.15.011.157-.079s-.069-.1-.147-.109a.836.836,0,0,1-.79-.815c-.03-.547-.042-1.1-.062-1.643h-.02V2.816c0-.054-.025-.124.043-.153s.111.031.152.077l2.975,3.287c.317.351.629.7.948,1.053.062.069.134.162.241.121s.076-.154.077-.239c.014-.643.03-1.287.04-1.931.013-.729.02-1.459.042-2.188.013-.457.111-.872.655-.982.052-.011.11-.038.1-.1C1616.042,1.675,1615.974,1.673,1615.907,1.672Z" transform="translate(-1465.971 -1.474)"/>
  <path id="パス_1774" data-name="パス 1774" d="M1166.984,2.7a2.772,2.772,0,1,0,0,5.544,2.789,2.789,0,0,0,2.837-2.734A2.747,2.747,0,0,0,1166.984,2.7Zm1.3,4.747a1.6,1.6,0,0,1-2.536-.006,2.912,2.912,0,0,1-.669-1.768,3.216,3.216,0,0,1,.439-1.918,1.612,1.612,0,0,1,2.76-.212,2.882,2.882,0,0,1,.656,1.631c.01.1.01.2.014.284A3.021,3.021,0,0,1,1168.279,7.447Z" transform="translate(-1060.261 -2.459)"/>
  <path id="パス_1775" data-name="パス 1775" d="M1395.069,4.529h-1.9c-.065.005-.15,0-.152.089s.059.121.142.124a1.882,1.882,0,0,1,.2.016.55.55,0,0,1,.564.536,4.727,4.727,0,0,1-.026.9.713.713,0,0,1-.557.662c-.134.034-.268.068-.405.089a2.084,2.084,0,0,1-1.952-.688,2.871,2.871,0,0,1-.66-2.073,3.026,3.026,0,0,1,.625-1.663,1.781,1.781,0,0,1,1.965-.766,1.887,1.887,0,0,1,1.532,1.321.549.549,0,0,0,.1.19c.028.035.059.067.108.052a.112.112,0,0,0,.09-.1c0-.033,0-.067,0-.1a9.635,9.635,0,0,1-.042-1.194c0-.078.045-.193-.07-.221s-.132.089-.168.163c-.059.123-.133.14-.25.077a3.576,3.576,0,0,0-1.35-.4,3.093,3.093,0,0,0-2.56.865,2.665,2.665,0,0,0-.75,2.171A2.5,2.5,0,0,0,1391.457,7a4.309,4.309,0,0,0,3.042-.281.292.292,0,0,0,.194-.308c0-.386.013-.772.016-1.161a.38.38,0,0,1,.109-.283,1.016,1.016,0,0,1,.3-.237c.062-.027.115-.065.1-.138S1395.128,4.529,1395.069,4.529Z" transform="translate(-1265.497 -1.384)"/>
  <path id="パス_1776" data-name="パス 1776" d="M1505.36,6.031a.918.918,0,0,1-.426-.279,1.872,1.872,0,0,1-.276-.514c-.561-1.5-1.072-3.021-1.55-4.553-.017-.048-.02-.109-.083-.121s-.09.049-.111.089a.725.725,0,0,1-.693.464c-.1,0-.115.053-.09.131a.347.347,0,0,1-.036.234q-.541,1.2-1.057,2.4c-.228.536-.435,1.087-.715,1.607a1.193,1.193,0,0,1-.586.525c-.055.024-.137.024-.124.108s.1.055.155.067a.386.386,0,0,0,.072,0h1.492c.069,0,.09-.053.09-.109s-.046-.072-.1-.073a.905.905,0,0,1-.461-.141.358.358,0,0,1-.159-.479c.155-.4.327-.8.507-1.2a.191.191,0,0,1,.2-.131c.617.007,1.236.011,1.85.013a.211.211,0,0,1,.216.154c.148.4.3.8.422,1.213a.342.342,0,0,1-.129.394.722.722,0,0,1-.439.146c-.066,0-.156-.018-.154.1s.076.117.161.116h2c.049,0,.123.029.139-.057S1505.413,6.051,1505.36,6.031ZM1503.1,3.746h-.645V3.74h-.661c-.245,0-.341-.146-.244-.38.178-.416.358-.829.535-1.244.072-.161.141-.322.212-.483.033-.071.072-.143.159-.146a.206.206,0,0,1,.18.129,3.079,3.079,0,0,1,.2.562c.148.446.288.893.431,1.345C1503.336,3.714,1503.307,3.745,1503.1,3.746Z" transform="translate(-1365.742 -0.511)"/>
  <path id="パス_1777" data-name="パス 1777" d="M1813.013,8.008a3.71,3.71,0,0,0,1.276-.4c.083-.04.161-.071.227.029.029.043.068.089.13.058s.058-.083.058-.136v-.6h.013V6.34c0-.065,0-.144-.088-.158s-.1.063-.12.128c-.008.032-.013.064-.024.1a1.756,1.756,0,0,1-1.016,1.25,1.877,1.877,0,0,1-2.294-.714,3.332,3.332,0,0,1,.094-3.554,1.753,1.753,0,0,1,2.648-.2,2.045,2.045,0,0,1,.448.775c.018.054.039.126.107.112s.068-.083.068-.142c0-.378,0-.754.005-1.131,0-.067.008-.142-.07-.17s-.115.037-.146.089a.2.2,0,0,1-.25.079c-.06-.02-.117-.045-.175-.068a2.974,2.974,0,0,0-2.382-.049,2.851,2.851,0,0,0-1.3,3.984A2.827,2.827,0,0,0,1813.013,8.008Z" transform="translate(-1648.304 -2.239)"/>
  <path id="パス_1778" data-name="パス 1778" d="M1731.481,7.658c-.029-.005-.057,0-.091-.007a.482.482,0,0,1-.472-.511c-.01-.262-.021-.524-.023-.786-.008-1.071-.018-2.137,0-3.206a.569.569,0,0,1,.479-.59.391.391,0,0,0,.081-.028.073.073,0,0,0,.044-.082.069.069,0,0,0-.07-.058c-.05,0-.1-.006-.144-.006h-1.622c-.07,0-.187-.049-.2.066s.1.1.18.126a.559.559,0,0,1,.422.558c0,.2.008.41.01.615,0,.314-.005.629,0,.944.018.83,0,1.66-.023,2.489a.44.44,0,0,1-.3.412,1.257,1.257,0,0,1-.237.058c-.06.012-.138.018-.13.1s.091.06.143.06h1.825a.6.6,0,0,0,.128-.009c.039-.009.073-.025.073-.073S1731.52,7.667,1731.481,7.658Z" transform="translate(-1574.996 -2.161)"/>
  <path id="パス_1779" data-name="パス 1779" d="M1277.366,209.945a1,1,0,0,1-.9-.474c-.625-.768-1.276-1.522-1.9-2.3q-1.4-1.75-2.783-3.522c-.16-.2-.323-.432.116-.536a3.782,3.782,0,0,0,2.517-4.575,3.372,3.372,0,0,0-3.16-2.439c-1.2-.105-2.41-.013-3.611-.014h-3.482c-.161,0-.4-.071-.424.193-.022.211.172.241.329.29.923.289,1.162.611,1.162,1.569v9.9a4.469,4.469,0,0,1-.083.881,1.191,1.191,0,0,1-.922,1.071c-.143.032-.377,0-.34.247s.261.2.434.2h4.462c.18,0,.447.062.454-.217.009-.248-.245-.227-.409-.229a1.553,1.553,0,0,1-1.531-1.538c-.142-1.373-.034-2.75-.062-4.124a.521.521,0,0,1,.293-.51,2.2,2.2,0,0,1,1.858.349q.752.878,1.48,1.775c1.06,1.3,2.109,2.6,3.169,3.9.2.249.4.574.748.585.861.026,1.724,0,2.59-.01.16,0,.3-.046.3-.247S1277.522,209.931,1277.366,209.945Zm-6.34-7.515a5.163,5.163,0,0,1-3.359.777c-.38-.021-.433-.3-.433-.6v-2.574h.027c0-.8-.005-1.6,0-2.4.005-.754.24-1.009.995-1.077a5.071,5.071,0,0,1,2.07.184,2.759,2.759,0,0,1,2.047,2.38,3.234,3.234,0,0,1-1.344,3.306Z" transform="translate(-1150.927 -178.551)"/>
  <path id="パス_1780" data-name="パス 1780" d="M637.719,193.6q-2.164-.015-4.326-.014c-.136,0-.322-.044-.365.161-.05.247.168.241.309.282a2.473,2.473,0,0,1,2.028,2.553c.146,2.469.076,4.94.083,7.409,0,.236.124.587-.134.695-.3.126-.434-.24-.6-.422q-4.585-5.022-9.151-10.062a1.971,1.971,0,0,0-1.613-.681c-.34.007-.682,0-1.024,0-.49,0-.983-.01-1.471,0a.329.329,0,0,0-.372.3.277.277,0,0,0,.261.308,3.025,3.025,0,0,1,1.677,1.092,1.191,1.191,0,0,1,.4.941c-.016,2.457-.014,4.91-.022,7.37,0,.562-.026,1.124-.032,1.685a2.293,2.293,0,0,1-1.823,2.41c-.179.05-.424.089-.4.337.026.268.279.218.462.218q2.342.007,4.684,0c.188,0,.431.031.447-.243s-.221-.259-.415-.283a2.241,2.241,0,0,1-2.094-2.206c-.072-1.476-.11-2.955-.162-4.433h-.081v-4.348c0-.166-.073-.389.152-.459.188-.058.281.127.387.244q2.754,3.024,5.506,6.048,2.5,2.742,5.008,5.48c.173.189.346.483.651.371s.183-.433.186-.668c.041-3.786.145-7.57.284-11.353a2.062,2.062,0,0,1,1.649-2.268c.17-.039.389-.083.333-.325C638.086,193.515,637.868,193.6,637.719,193.6Z" transform="translate(-565.637 -176.237)"/>
  <path id="パス_1781" data-name="パス 1781" d="M342.78,203.808c-.179-.039-.262.124-.321.255a7.481,7.481,0,0,1-.941,1.55,3,3,0,0,1-1.964,1.186,13.746,13.746,0,0,1-3.862.113,2.617,2.617,0,0,1-1.3-.542,1.179,1.179,0,0,1-.513-.939c-.008-1.584-.008-3.167-.02-4.751,0-.338.154-.5.477-.5.476-.008.952-.012,1.428,0a1.864,1.864,0,0,1,1.6.972,2.53,2.53,0,0,1,.379,1.214c.008.13-.037.363.152.357a.441.441,0,0,0,.429-.378,1.418,1.418,0,0,0,0-.268q-.037-2.33-.074-4.659a.843.843,0,0,0-.143-.548c-.07-.089-.143-.214-.279-.185s-.1.161-.121.26a4.589,4.589,0,0,1-.535,1.721,1.661,1.661,0,0,1-1.228.867c-.485.057-.982.042-1.466.082a.476.476,0,0,1-.568-.475,3.427,3.427,0,0,1-.031-.487q-.01-2.131-.016-4.263c0-.777.206-1.011,1-1.071q.867-.065,1.735-.069a4.37,4.37,0,0,1,3.468,1.415,12.822,12.822,0,0,1,1.133,1.25c.089.137.219.28.4.22.2-.068.14-.268.128-.425a1.641,1.641,0,0,0-.085-.388,12.507,12.507,0,0,0-.976-2.18.646.646,0,0,0-.647-.351c-3.105-.038-6.213.114-9.318-.077-.139-.009-.29,0-.34.146s.079.238.2.293a2.158,2.158,0,0,1,1.261,2.244c-.035,3.048-.058,6.094-.11,9.142a2.629,2.629,0,0,1-1.41,2.57c-.132.064-.227.16-.16.315s.23.126.35.1a7.488,7.488,0,0,1,1.643-.08c1.383-.006,2.767,0,4.149,0h5.267a.706.706,0,0,0,.714-.336,5.568,5.568,0,0,0,.692-2.94C342.956,204.036,342.958,203.85,342.78,203.808Z" transform="translate(-300.654 -175.509)"/>
  <path id="パス_1782" data-name="パス 1782" d="M973.442,203.891c-.2-.048-.276.138-.344.283a7.985,7.985,0,0,1-.656,1.154,3.267,3.267,0,0,1-2.275,1.556,14.294,14.294,0,0,1-3.815.11,2.607,2.607,0,0,1-1.338-.564,1.125,1.125,0,0,1-.482-.863c-.013-1.613-.012-3.225-.022-4.838a.414.414,0,0,1,.461-.469c.475-.011.949-.009,1.428,0a1.874,1.874,0,0,1,1.607.96,2.529,2.529,0,0,1,.387,1.255c.006.118-.031.3.135.338s.263-.112.369-.212c.126-.118.082-.278.079-.421q-.033-2.327-.073-4.656a.924.924,0,0,0-.133-.553c-.068-.1-.143-.217-.273-.2-.162.019-.121.179-.142.286a5.776,5.776,0,0,1-.357,1.367,1.813,1.813,0,0,1-1.34,1.184,15.134,15.134,0,0,1-1.643.089.385.385,0,0,1-.417-.318,2.074,2.074,0,0,1-.066-.614q-.01-2.153-.016-4.305c0-.753.2-.977.97-1.053a11.055,11.055,0,0,1,1.824-.069,4.29,4.29,0,0,1,2.716.8,10.881,10.881,0,0,1,1.829,1.869c.1.141.225.263.4.2s.113-.249.12-.388a.868.868,0,0,0-.044-.26,11.178,11.178,0,0,0-1.049-2.386.56.56,0,0,0-.536-.306c-3.134-.031-6.269.115-9.4-.075-.139-.008-.292,0-.337.151s.089.234.212.289a2.162,2.162,0,0,1,1.258,2.245c-.031,3.076-.05,6.152-.113,9.228a2.548,2.548,0,0,1-1.407,2.48c-.134.064-.225.157-.164.312s.225.134.349.106a6.95,6.95,0,0,1,1.552-.081c1.413-.005,2.826,0,4.237,0h5.307a.685.685,0,0,0,.675-.328,5.555,5.555,0,0,0,.7-2.936C973.61,204.124,973.614,203.932,973.442,203.891Z" transform="translate(-875.007 -175.585)"/>
  <path id="パス_1783" data-name="パス 1783" d="M2079.519,204.048a3.007,3.007,0,0,1-2.018-2.184c-1.5-3.98-2.831-8.016-4.133-12.062-.052-.164-.026-.4-.237-.434-.253-.045-.3.219-.375.372a1.756,1.756,0,0,1-1.472,1.071c-.388.029-.719.054-.547.6.039.125-.078.307-.143.454q-1.21,2.756-2.432,5.508c-.752,1.7-1.4,3.449-2.255,5.1a3.326,3.326,0,0,1-1.6,1.484c-.151.072-.4.06-.352.306s.287.168.453.169c1.162.005,2.32,0,3.485,0,.221,0,.445,0,.666-.008a.25.25,0,0,0,.248-.263c.012-.187-.1-.218-.255-.22a2.478,2.478,0,0,1-1.029-.268,1.018,1.018,0,0,1-.6-1.479c.409-1.012.854-2.011,1.263-3.022a.663.663,0,0,1,.713-.462q2.364.035,4.735.03a.678.678,0,0,1,.724.516c.338.976.708,1.942,1.036,2.921a1.038,1.038,0,0,1-.677,1.49,2.23,2.23,0,0,1-.731.179c-.2.018-.482-.071-.453.306.029.351.3.274.5.276.868.006,1.727,0,2.591,0h2.768c.127,0,.284.03.3-.169a.2.2,0,0,0-.042-.149A.2.2,0,0,0,2079.519,204.048Zm-6.226-6.178H2071.6c-.578,0-1.158.006-1.734,0-.714-.007-.966-.386-.685-1.042q.969-2.252,1.958-4.5c.1-.223.187-.5.5-.485.291.014.44.254.529.485.234.636.435,1.283.643,1.927.323,1,.646,1.991.96,2.987C2073.957,197.82,2073.917,197.869,2073.292,197.87Z" transform="translate(-1879.7 -172.459)"/>
  <path id="パス_1784" data-name="パス 1784" d="M15.863,186.462a13.372,13.372,0,0,1-.485-2.563c-.007-.251.128-.591-.188-.714-.292-.115-.476.179-.657.357a2.441,2.441,0,0,1-1.847.7c-3.214-.046-6.42-.065-9.631-.041a1.984,1.984,0,0,1-1.668-.727,1.24,1.24,0,0,0-.148-.164c-.218-.179-.391-.146-.454.14Q.4,185.2.025,186.951c-.027.126-.062.287.1.346.194.071.254-.113.322-.232a8.022,8.022,0,0,1,1.022-1.552,1.446,1.446,0,0,1,1.071-.55c1.187-.012,2.375-.041,3.563-.055.576-.007.666.089.666.671q0,5.616.005,11.232a1.416,1.416,0,0,1-.426,1.034,1.807,1.807,0,0,1-1.078.565c-.107.014-.248.042-.245.2,0,.19.151.192.285.2.1.007.208,0,.312,0,1.561,0,3.124.008,4.683-.008.238,0,.637.166.686-.178.044-.3-.375-.243-.589-.329-1.142-.454-1.292-.893-1.275-1.764.036-1.775.011-3.551.011-5.327H9.18v-5.717c0-.331.021-.625.484-.625,1.352.014,2.7.02,4.052.111a.855.855,0,0,1,.723.433c.362.576.746,1.137,1.061,1.741.066.126.146.289.33.236.215-.062.169-.256.148-.411C15.955,186.8,15.9,186.635,15.863,186.462Z" transform="translate(-0.002 -166.807)"/>
  <path id="パス_1785" data-name="パス 1785" d="M1794.507,186.465a13.5,13.5,0,0,1-.495-2.652c-.008-.229.1-.508-.161-.638s-.417.138-.6.268a1.414,1.414,0,0,0-.167.144,2.207,2.207,0,0,1-1.649.631q-4.922-.06-9.851-.041a1.859,1.859,0,0,1-1.453-.61c-.07-.075-.133-.16-.208-.231-.266-.259-.422-.214-.505.153-.25,1.124-.492,2.25-.742,3.374-.039.167-.092.348.1.42s.242-.12.313-.245a9,9,0,0,1,.935-1.453,1.522,1.522,0,0,1,1.167-.639c1.161-.012,2.323-.042,3.474-.056.682-.008.75.059.75.725q0,5.573.005,11.146a1.528,1.528,0,0,1-.6,1.225,1.7,1.7,0,0,1-.919.411c-.125.014-.258.078-.253.209.008.158.151.2.3.2h5.219a1.406,1.406,0,0,0,.31-.013c.081-.018.18-.049.193-.155a.193.193,0,0,0-.149-.2c-.167-.061-.341-.1-.508-.156a1.439,1.439,0,0,1-1.216-1.683v-5.329h.029v-5.816c0-.536.063-.594.586-.593,1.276,0,2.554.02,3.831.094a1,1,0,0,1,.875.5c.333.536.693,1.066.995,1.626.081.148.151.376.38.286.208-.083.13-.3.107-.465A4.144,4.144,0,0,0,1794.507,186.465Z" transform="translate(-1619.856 -166.79)"/>
  <path id="パス_1786" data-name="パス 1786" d="M1576.881,209.289a1.265,1.265,0,0,1-1.256-1.339c-.044-.707-.069-1.416-.07-2.126-.008-2.883-.015-5.768,0-8.651a1.413,1.413,0,0,1,1.172-1.542c.155-.045.3-.1.267-.287s-.22-.192-.357-.193q-2.363-.012-4.724,0c-.14,0-.324,0-.319.22,0,.178.145.239.3.268.115.023.232.046.346.08a1.326,1.326,0,0,1,1.07,1.387c.013,1.759,0,3.519,0,5.279h-.022c0,1.759.013,3.518,0,5.277a1.436,1.436,0,0,1-1.384,1.634c-.17.033-.406.026-.371.274.03.208.25.166.406.166h4.9c.182,0,.445.05.445-.224C1577.3,209.276,1577.057,209.311,1576.881,209.289Z" transform="translate(-1431.236 -177.724)"/>
</svg>
